<svg width="540" height="360" viewBox="0 0 540 360" fill="none" xmlns="http://www.w3.org/2000/svg">
<rect width="540" height="360" fill="none"/>
<g clip-path="url(#clip0_103_2)">
<mask id="mask0_103_2" style="mask-type:luminance" maskUnits="userSpaceOnUse" x="85" y="147" width="47" height="60">
<path d="M106.413 185.749C103.559 189.068 100.704 192.379 97.874 195.715L99.285 206.611L104.827 199.214C108.142 194.789 109.476 194.789 112.795 199.214L118.321 206.611L119.732 195.715C116.877 192.379 114.051 189.068 111.168 185.749C110.872 185.403 110.504 185.126 110.091 184.936C109.677 184.746 109.227 184.647 108.772 184.647C108.317 184.647 107.867 184.746 107.454 184.936C107.04 185.126 106.673 185.403 106.377 185.749M127.7 179.159C125.889 179.903 124.306 181.112 123.11 182.662C121.914 184.213 121.147 186.051 120.886 187.991L119.748 195.715L125.359 204.425L131.925 177.075C130.556 177.846 129.145 178.542 127.7 179.159ZM85.6973 177.075L92.2628 204.425L97.874 195.715L96.7363 187.991C96.4759 186.051 95.7095 184.213 94.5141 182.663C93.3187 181.113 91.7364 179.904 89.9261 179.159C88.4797 178.541 87.068 177.846 85.6973 177.075C87.0688 176.305 88.4805 175.61 89.9261 174.991C91.7364 174.247 93.3187 173.039 94.5142 171.489C95.7096 169.939 96.476 168.102 96.7363 166.162L97.874 158.439L92.2628 149.728L85.6973 177.075ZM119.748 158.439L120.886 166.162C121.147 168.102 121.914 169.94 123.11 171.489C124.306 173.039 125.889 174.247 127.7 174.991C129.147 175.609 130.56 176.305 131.933 177.075L125.359 149.728L119.748 158.439ZM112.816 154.94C109.476 159.368 108.126 159.368 104.827 154.94L99.285 147.542L97.874 158.439C100.716 161.774 103.555 165.077 106.413 168.405C106.71 168.751 107.077 169.028 107.491 169.218C107.904 169.408 108.354 169.506 108.809 169.506C109.264 169.506 109.714 169.408 110.127 169.218C110.541 169.028 110.908 168.751 111.205 168.405C114.059 165.082 116.914 161.774 119.768 158.439L118.321 147.542L112.795 154.94" fill="white"/>
</mask>
<g mask="url(#mask0_103_2)">
<path d="M85.6999 147.001L85.0029 206.604L131.916 207.153L132.613 147.55L85.6999 147.001Z" fill="url(#paint0_linear_103_2)"/>
</g>
<path d="M401.191 215.946V215.917C401.191 214.286 400.118 213.605 398.218 213.107C396.587 212.7 396.179 212.492 396.179 211.884V211.86C396.179 211.403 396.587 211.044 397.402 211.044C398.293 211.095 399.146 211.417 399.849 211.966L400.922 210.412C399.936 209.622 398.706 209.201 397.443 209.221C395.526 209.221 394.181 210.347 394.181 212.047V212.072C394.181 213.931 395.404 214.453 397.284 214.926C398.85 215.334 399.172 215.595 399.172 216.117V216.141C399.172 216.692 398.662 217.026 397.818 217.026C396.779 216.998 395.785 216.594 395.021 215.889L393.797 217.348C394.893 218.318 396.307 218.851 397.769 218.845C399.808 218.845 401.211 217.801 401.211 215.942M392.888 218.71V216.839H388.194V209.348H386.155V218.727L392.888 218.71ZM384.324 218.71V216.867H379.215V214.898H383.631V213.067H379.215V211.166H384.235V209.331H377.168V218.71H384.324ZM375.614 211.244V209.343H367.866V211.244H370.72V218.71H372.784V211.248L375.614 211.244ZM364.934 214.053C364.95 214.432 364.889 214.81 364.754 215.165C364.62 215.519 364.415 215.843 364.152 216.116C363.889 216.389 363.573 216.606 363.224 216.753C362.875 216.9 362.499 216.975 362.12 216.973C361.739 216.971 361.363 216.892 361.013 216.742C360.663 216.592 360.347 216.373 360.082 216.098C359.818 215.824 359.612 215.5 359.475 215.144C359.338 214.789 359.274 214.41 359.286 214.029V214.013C359.27 213.634 359.331 213.257 359.465 212.903C359.599 212.549 359.804 212.226 360.066 211.953C360.329 211.681 360.644 211.464 360.993 211.317C361.342 211.17 361.717 211.095 362.096 211.097C362.478 211.097 362.857 211.173 363.209 211.323C363.561 211.472 363.88 211.69 364.146 211.965C364.413 212.239 364.621 212.565 364.759 212.921C364.897 213.278 364.962 213.659 364.95 214.041L364.934 214.053ZM367.087 214.029V214.013C367.031 212.727 366.481 211.513 365.55 210.624C364.619 209.735 363.381 209.241 362.094 209.245C360.807 209.248 359.572 209.75 358.646 210.644C357.721 211.538 357.177 212.755 357.129 214.041V214.066C357.184 215.351 357.734 216.566 358.664 217.455C359.595 218.344 360.833 218.839 362.12 218.836C363.406 218.832 364.642 218.332 365.568 217.438C366.494 216.544 367.038 215.327 367.087 214.041M355.298 218.723V209.343H353.21V213.05H349.409V209.343H347.37V218.723H349.409V214.963H353.21V218.723H355.298ZM342.073 209.343H339.732L337.457 213.103L335.222 209.343H332.812L336.413 215.02V218.71H338.452V214.979L342.073 209.343ZM332.196 211.244V209.343H324.448V211.244H327.303V218.71H329.342V211.248L332.196 211.244ZM322.76 209.343H320.721V218.723H322.76V209.343ZM319.053 218.723V216.851H314.359V209.348H312.296V218.727L319.053 218.723ZM307.129 214.804H304.642L305.865 211.766L307.129 214.804ZM310.877 218.723L306.86 209.29H304.96L300.947 218.723H303.047L303.903 216.623H307.867L308.724 218.723H310.877ZM299.98 214.645V209.343H297.942V214.71C297.942 216.198 297.179 216.961 295.903 216.961C294.626 216.961 293.884 216.17 293.884 214.645V209.343H291.821V214.698C291.821 217.454 293.362 218.857 295.899 218.857C298.435 218.857 300.005 217.467 300.005 214.628M287.963 214.058C287.972 214.499 287.886 214.937 287.71 215.342L286.173 213.952L284.86 215.424L286.385 216.72C286 216.892 285.583 216.98 285.161 216.977C284.779 216.978 284.4 216.901 284.048 216.752C283.695 216.603 283.377 216.384 283.11 216.11C282.844 215.835 282.636 215.51 282.498 215.153C282.36 214.796 282.295 214.415 282.307 214.033V214.013C282.291 213.634 282.353 213.257 282.487 212.903C282.622 212.549 282.827 212.226 283.09 211.953C283.353 211.681 283.669 211.464 284.018 211.317C284.367 211.17 284.742 211.095 285.121 211.097C285.503 211.097 285.882 211.173 286.234 211.323C286.586 211.472 286.905 211.69 287.171 211.965C287.438 212.239 287.646 212.565 287.784 212.921C287.922 213.278 287.987 213.659 287.975 214.041L287.963 214.058ZM290.255 217.54L289.288 216.725C289.827 215.933 290.111 214.995 290.104 214.037V214.013C290.048 212.727 289.497 211.513 288.567 210.624C287.636 209.735 286.398 209.241 285.111 209.245C283.824 209.248 282.589 209.75 281.663 210.644C280.737 211.538 280.194 212.755 280.145 214.041V214.066C280.144 214.711 280.272 215.35 280.523 215.944C280.774 216.538 281.142 217.076 281.605 217.525C282.068 217.974 282.617 218.326 283.219 218.558C283.821 218.79 284.463 218.899 285.108 218.878C286.095 218.882 287.061 218.598 287.889 218.062L288.921 218.984L290.255 217.54ZM274.913 211.223V209.348H267.777V218.727H269.84V215.101H274.326V213.23H269.84V211.236L274.913 211.223ZM263.789 214.078C263.805 214.456 263.744 214.834 263.61 215.188C263.476 215.543 263.271 215.866 263.008 216.139C262.746 216.412 262.431 216.629 262.082 216.776C261.733 216.924 261.358 216.999 260.979 216.998C260.597 216.998 260.218 216.921 259.866 216.772C259.513 216.623 259.195 216.405 258.928 216.13C258.662 215.856 258.454 215.53 258.316 215.173C258.178 214.817 258.113 214.436 258.125 214.053V214.013C258.109 213.635 258.17 213.257 258.305 212.904C258.439 212.55 258.644 212.227 258.906 211.955C259.169 211.682 259.484 211.466 259.833 211.318C260.181 211.171 260.556 211.096 260.934 211.097C261.317 211.097 261.695 211.173 262.048 211.323C262.4 211.472 262.719 211.69 262.985 211.965C263.251 212.239 263.46 212.565 263.598 212.921C263.736 213.278 263.801 213.659 263.789 214.041V214.078ZM265.946 214.053V214.013C265.89 212.727 265.34 211.513 264.409 210.624C263.478 209.735 262.24 209.241 260.953 209.245C259.666 209.248 258.431 209.75 257.505 210.644C256.58 211.538 256.036 212.755 255.988 214.041V214.066C256.043 215.351 256.593 216.566 257.523 217.455C258.454 218.344 259.692 218.839 260.979 218.836C262.265 218.832 263.501 218.332 264.427 217.438C265.353 216.544 265.897 215.327 265.946 214.041M251.102 209.356H248.762L246.486 213.116L244.251 209.356H241.841L245.442 215.032V218.723H247.502V214.991L251.102 209.356ZM242.991 218.735V216.863H238.314V209.348H236.251V218.727L242.991 218.735ZM233.918 209.356H231.85V218.735H233.91L233.918 209.356ZM229.514 218.735V209.356H227.295L224.849 213.315L222.402 209.356H220.179V218.735H222.218V212.659L224.828 216.623H224.881L227.516 212.618V218.735H229.514ZM214.952 214.816H212.464L213.708 211.778L214.952 214.816ZM218.703 218.735L214.686 209.303H212.786L208.769 218.735H210.87L211.73 216.635H215.69L216.546 218.735H218.703ZM208.998 211.244V209.368H201.857V218.747H203.896V215.122H208.382V213.25H203.896V211.256L208.998 211.244Z" fill="#006462"/>
<path d="M453.935 187.71V187.6C453.97 186.449 453.688 185.31 453.119 184.309C452.585 183.415 451.88 182.634 451.043 182.013C450.168 181.368 449.216 180.834 448.209 180.423C447.165 179.99 446.121 179.613 445.077 179.289C444.262 179.036 443.446 178.775 442.676 178.506C441.977 178.265 441.296 177.976 440.637 177.642C440.105 177.382 439.621 177.035 439.205 176.614C439.031 176.441 438.893 176.235 438.8 176.008C438.707 175.781 438.66 175.538 438.663 175.293V175.183C438.662 174.783 438.757 174.389 438.94 174.035C439.123 173.68 439.389 173.374 439.715 173.144C440.58 172.555 441.615 172.268 442.659 172.328C443.986 172.353 445.299 172.598 446.546 173.054C447.997 173.565 449.391 174.226 450.705 175.028L453.286 170.379C451.734 169.353 450.044 168.553 448.266 168.001C446.503 167.438 444.665 167.148 442.814 167.141C441.469 167.131 440.13 167.331 438.846 167.732C437.659 168.095 436.551 168.682 435.584 169.461C434.672 170.21 433.935 171.149 433.427 172.214C432.894 173.344 432.626 174.581 432.644 175.831V175.941C432.605 177.137 432.886 178.321 433.459 179.371C433.992 180.274 434.699 181.063 435.539 181.691C436.413 182.336 437.374 182.854 438.394 183.228C439.454 183.623 440.506 183.983 441.55 184.309L443.972 185.059C444.676 185.268 445.358 185.541 446.011 185.875C446.543 186.133 447.021 186.49 447.418 186.927C447.758 187.315 447.941 187.815 447.932 188.33V188.44C447.942 188.881 447.841 189.317 447.638 189.708C447.435 190.1 447.136 190.433 446.77 190.679C445.995 191.239 444.908 191.519 443.507 191.519C441.928 191.499 440.364 191.197 438.891 190.626C437.199 189.983 435.608 189.101 434.165 188.008L431.257 192.4C433.02 193.78 435 194.856 437.117 195.584C439.122 196.286 441.229 196.651 443.353 196.665C444.759 196.673 446.159 196.483 447.512 196.098C448.731 195.756 449.875 195.187 450.884 194.422C451.839 193.684 452.606 192.731 453.123 191.641C453.692 190.407 453.971 189.06 453.939 187.702M429.471 156.71H422.885V196.123H429.467L429.471 156.71ZM399.18 179.88C399.375 177.861 400.217 175.958 401.582 174.457C402.22 173.776 402.995 173.239 403.857 172.88C404.718 172.522 405.645 172.35 406.578 172.377C407.579 172.357 408.572 172.56 409.485 172.972C410.312 173.353 411.055 173.894 411.671 174.563C412.302 175.257 412.797 176.064 413.131 176.94C413.496 177.884 413.732 178.873 413.832 179.88H399.18ZM399.233 184.199H420.182C420.218 183.877 420.247 183.571 420.263 183.281C420.28 182.992 420.292 182.706 420.292 182.417C420.3 180.423 420.008 178.44 419.427 176.532C418.894 174.752 418.023 173.09 416.862 171.639C415.709 170.218 414.251 169.074 412.597 168.291C410.73 167.423 408.689 166.992 406.631 167.031C404.694 167.006 402.776 167.413 401.015 168.222C399.352 168.992 397.857 170.082 396.615 171.431C395.359 172.807 394.379 174.411 393.728 176.157C393.035 178.003 392.686 179.96 392.701 181.932C392.672 184.012 393.058 186.077 393.834 188.008C394.546 189.757 395.603 191.345 396.942 192.677C398.271 193.985 399.849 195.012 401.582 195.699C403.411 196.429 405.364 196.796 407.332 196.779C409.676 196.843 412 196.342 414.11 195.319C415.985 194.365 417.649 193.043 419.003 191.433L415.17 188.032C414.142 189.06 412.957 189.918 411.659 190.573C410.338 191.176 408.898 191.47 407.446 191.433C405.481 191.488 403.562 190.827 402.047 189.574C400.571 188.331 399.634 186.54 399.237 184.199M385.25 173.188H392.917V167.626H385.25V159.797H378.66V167.626H375.043V173.188H378.66V188.232C378.622 189.583 378.826 190.929 379.264 192.208C379.608 193.195 380.196 194.08 380.972 194.781C381.738 195.441 382.643 195.92 383.619 196.184C384.694 196.482 385.806 196.627 386.922 196.616C388.013 196.631 389.101 196.505 390.16 196.241C391.084 195.994 391.974 195.631 392.807 195.16V189.814C391.552 190.453 390.165 190.787 388.757 190.789C387.817 190.848 386.89 190.548 386.164 189.949C385.552 189.394 385.246 188.473 385.246 187.217L385.25 173.188ZM368.453 181.989C368.462 183.193 368.26 184.389 367.858 185.524C367.486 186.591 366.905 187.572 366.149 188.411C365.388 189.243 364.467 189.913 363.441 190.381C362.317 190.88 361.099 191.129 359.869 191.111C358.674 191.122 357.492 190.873 356.403 190.381C355.371 189.909 354.441 189.24 353.667 188.411C352.884 187.555 352.276 186.555 351.876 185.467C351.442 184.319 351.222 183.102 351.228 181.874C351.219 180.67 351.421 179.474 351.823 178.339C352.196 177.272 352.777 176.289 353.532 175.448C354.757 174.157 356.35 173.276 358.094 172.923C359.838 172.571 361.648 172.764 363.278 173.478C364.315 173.954 365.245 174.634 366.015 175.476C366.789 176.338 367.396 177.336 367.805 178.42C368.241 179.558 368.461 180.767 368.453 181.985M375.039 181.874C375.07 178.944 374.219 176.072 372.596 173.631C370.974 171.191 368.655 169.295 365.941 168.189C364.015 167.4 361.95 167.005 359.869 167.027C357.855 167.004 355.856 167.381 353.988 168.137C352.121 168.892 350.422 170.01 348.989 171.427C347.631 172.791 346.55 174.404 345.804 176.178C345.03 177.973 344.622 179.905 344.603 181.86C344.584 183.815 344.955 185.754 345.694 187.564C346.432 189.374 347.524 191.019 348.906 192.402C350.287 193.786 351.931 194.88 353.74 195.621C357.632 197.175 361.975 197.165 365.86 195.593C369.474 194.108 372.355 191.256 373.877 187.657C374.657 185.831 375.052 183.864 375.039 181.879M335.026 180.207V196.131H341.616V158.341H335.026V174.049H316.888V158.341H310.302V196.131H316.888V180.207H335.026ZM282.013 185.28C281.985 183.607 282.222 181.94 282.715 180.341C283.118 179.032 283.799 177.826 284.713 176.806C285.565 175.877 286.618 175.156 287.792 174.697C289.049 174.218 290.385 173.98 291.731 173.996H292.11V167.088C289.59 166.976 287.502 167.569 285.846 168.866C284.137 170.231 282.814 172.017 282.005 174.049V167.626H275.419V196.131H282.005L282.013 185.28ZM265.701 185.818C265.711 186.667 265.517 187.506 265.135 188.265C264.752 189.006 264.207 189.652 263.54 190.153C262.818 190.699 262.005 191.114 261.138 191.376C260.167 191.673 259.156 191.819 258.141 191.808C256.758 191.855 255.393 191.478 254.23 190.728C253.715 190.39 253.296 189.923 253.017 189.374C252.737 188.824 252.606 188.211 252.636 187.596V187.506C252.606 186.838 252.75 186.174 253.053 185.578C253.356 184.982 253.808 184.475 254.365 184.105C255.515 183.314 257.116 182.918 259.169 182.918C260.372 182.913 261.574 183.021 262.757 183.241C263.762 183.421 264.747 183.694 265.701 184.056V185.818ZM272.018 196.131V179.232C272.018 175.426 270.992 172.465 268.939 170.35C266.887 168.235 263.739 167.183 259.495 167.194C257.477 167.157 255.463 167.375 253.5 167.842C251.833 168.277 250.205 168.853 248.635 169.563L250.417 174.803C251.662 174.278 252.943 173.845 254.251 173.507C255.664 173.166 257.115 173.003 258.569 173.021C260.841 173.021 262.574 173.543 263.781 174.587C264.988 175.631 265.587 177.14 265.587 179.122V179.823C264.448 179.458 263.286 179.169 262.109 178.959C260.653 178.724 259.179 178.616 257.705 178.637C256.149 178.624 254.599 178.814 253.092 179.203C251.773 179.534 250.527 180.111 249.422 180.904C248.405 181.65 247.581 182.628 247.02 183.758C246.42 185.022 246.124 186.409 246.156 187.808V187.914C246.124 189.172 246.384 190.42 246.916 191.56C247.448 192.7 248.238 193.7 249.222 194.483C250.178 195.241 251.268 195.81 252.436 196.159C253.696 196.541 255.006 196.732 256.322 196.726C258.228 196.783 260.118 196.376 261.831 195.54C263.249 194.818 264.514 193.827 265.555 192.624V196.131H272.018ZM243.99 156.718H237.396V196.131H243.986L243.99 156.718ZM232.911 156.718H226.329V196.131H232.911V156.718ZM202.624 179.88C202.818 177.861 203.661 175.958 205.026 174.457C205.664 173.776 206.439 173.239 207.3 172.88C208.161 172.522 209.089 172.35 210.021 172.377C211.023 172.357 212.016 172.56 212.929 172.972C213.755 173.354 214.497 173.894 215.115 174.563C215.744 175.258 216.239 176.064 216.575 176.94C216.939 177.884 217.175 178.873 217.276 179.88H202.624ZM202.677 184.199H223.625C223.662 183.877 223.691 183.571 223.707 183.281C223.723 182.992 223.735 182.706 223.735 182.417C223.743 180.423 223.452 178.44 222.871 176.532C222.336 174.752 221.465 173.091 220.306 171.639C219.152 170.218 217.695 169.074 216.04 168.291C214.173 167.423 212.133 166.992 210.074 167.031C208.137 167.006 206.219 167.413 204.459 168.222C202.796 168.992 201.3 170.082 200.059 171.431C198.803 172.807 197.823 174.411 197.172 176.157C196.478 178.003 196.13 179.96 196.144 181.932C196.116 184.012 196.501 186.077 197.278 188.008C197.99 189.757 199.047 191.345 200.385 192.677C201.714 193.985 203.292 195.012 205.026 195.699C206.854 196.429 208.807 196.796 210.776 196.779C213.119 196.843 215.444 196.342 217.553 195.319C219.428 194.364 221.092 193.042 222.447 191.433L218.614 188.032C217.586 189.06 216.4 189.918 215.102 190.573C213.782 191.176 212.341 191.47 210.89 191.433C208.924 191.488 207.006 190.827 205.491 189.574C204.015 188.331 203.078 186.54 202.681 184.199M188.694 173.188H196.36V167.626H188.694V159.797H182.104V167.626H178.487V173.188H182.104V188.232C182.064 189.583 182.268 190.93 182.707 192.208C183.052 193.195 183.639 194.08 184.416 194.781C185.182 195.441 186.086 195.92 187.063 196.184C188.138 196.482 189.25 196.627 190.366 196.616C191.457 196.631 192.545 196.505 193.604 196.241C194.528 195.994 195.417 195.631 196.25 195.16V189.814C194.996 190.453 193.608 190.787 192.201 190.789C191.261 190.848 190.334 190.548 189.607 189.949C188.995 189.394 188.69 188.473 188.69 187.217L188.694 173.188ZM157.155 168.222C157.158 167.596 157.307 166.98 157.59 166.422C157.874 165.864 158.283 165.38 158.786 165.008C159.874 164.127 161.387 163.686 163.325 163.683C165.076 163.687 166.811 164.022 168.439 164.67C170.264 165.413 171.988 166.384 173.569 167.561L177.133 162.537C175.258 161.031 173.152 159.838 170.898 159.001C168.496 158.158 165.964 157.744 163.419 157.778C161.663 157.76 159.916 158.024 158.244 158.561C156.748 159.028 155.361 159.791 154.166 160.804C153.048 161.767 152.144 162.953 151.511 164.286C150.862 165.692 150.533 167.224 150.549 168.772C150.499 170.308 150.777 171.837 151.364 173.258C151.925 174.478 152.763 175.55 153.811 176.39C155 177.321 156.336 178.05 157.763 178.547C159.532 179.199 161.341 179.74 163.178 180.166C164.631 180.5 166.065 180.909 167.476 181.389C168.395 181.697 169.27 182.123 170.078 182.657C170.638 183.024 171.087 183.537 171.375 184.142C171.615 184.723 171.735 185.348 171.725 185.977C171.746 186.668 171.59 187.352 171.274 187.966C170.957 188.58 170.489 189.104 169.915 189.488C168.713 190.352 167.082 190.785 165.021 190.785C162.831 190.822 160.659 190.388 158.652 189.512C156.638 188.572 154.77 187.347 153.106 185.875L149.113 190.626C151.263 192.605 153.773 194.153 156.507 195.185C159.185 196.179 162.021 196.683 164.879 196.673C166.724 196.692 168.561 196.437 170.331 195.915C171.876 195.467 173.316 194.716 174.568 193.705C175.741 192.735 176.685 191.518 177.333 190.14C178.01 188.63 178.347 186.988 178.319 185.333C178.352 183.916 178.085 182.508 177.536 181.202C177.002 180.021 176.215 178.972 175.232 178.127C174.097 177.17 172.808 176.412 171.42 175.884C169.7 175.214 167.938 174.656 166.147 174.212C164.336 173.78 162.852 173.368 161.661 172.989C160.686 172.684 159.757 172.248 158.9 171.692C158.316 171.317 157.841 170.796 157.522 170.179C157.254 169.568 157.125 168.905 157.143 168.238" fill="#006462"/>
</g>
<defs>
<linearGradient id="paint0_linear_103_2" x1="74.1804" y1="176.776" x2="115.103" y2="177.254" gradientUnits="userSpaceOnUse">
<stop stop-color="#D7BEC1"/>
<stop offset="1" stop-color="#B17175"/>
</linearGradient>
<clipPath id="clip0_103_2">
<rect width="368.935" height="72" fill="white" transform="translate(85 147)"/>
</clipPath>
</defs>
</svg>
